<svg t="1665316045044" class="icon" viewBox="0 0 1225 1024" version="1.1" xmlns="http://www.w3.org/2000/svg" p-id="2718" width="20" height="20">
  <path
    d="M1034.570239 270.996844V841.152359a182.847641 182.847641 0 0 1-182.847641 182.847641H391.641363a182.847641 182.847641 0 0 1-182.847641-182.847641V270.996844a45.090228 45.090228 0 0 1 0-90.162172v-0.091424h196.561214a219.837719 219.837719 0 0 1 432.672374 0h196.542929v0.109708a45.090228 45.090228 0 0 1 0 90.143888zM621.68198 90.398228a132.546255 132.546255 0 0 0-124.610667 90.34502h249.221335A132.546255 132.546255 0 0 0 621.68198 90.398228z m324.408286 180.690039H297.273695v552.858129a109.708585 109.708585 0 0 0 109.708585 109.708584h429.399401a109.708585 109.708585 0 0 0 109.708585-109.708584V271.106552z m-221.245646 481.85839a44.230844 44.230844 0 0 1-44.230845-44.230845V496.027436a44.230844 44.230844 0 0 1 88.479974 0v212.688376a44.230844 44.230844 0 0 1-44.194275 44.249129z m-206.434987 0a44.230844 44.230844 0 0 1-44.230845-44.230845V496.027436a44.230844 44.230844 0 0 1 88.479974 0v212.688376a44.230844 44.230844 0 0 1-44.194275 44.249129z"
    p-id="2719" fill="#ffffff">
  </path>
</svg>
