<svg t="1664883786054" class="icon" viewBox="0 0 1024 1024" version="1.1" xmlns="http://www.w3.org/2000/svg" p-id="3408" width="20" height="20"><path d="M512 64C264.6 64 64 264.6 64 512s200.6 448 448 448 448-200.6 448-448S759.4 64 512 64z m0 224c-29.5 0-58.3-2.6-86.2-7.5C452 175.3 491.4 120 512 120c20.6 0 60 55.3 86.2 160.5-27.9 4.8-56.7 7.5-86.2 7.5z m140.7-20.4c-13.6-55.7-31.8-102.6-53.1-137.4 63.6 14.6 121.3 44.7 169 86.1-35.3 21.8-74.3 39.1-115.9 51.3z m-281.4 0c-41.6-12.2-80.5-29.6-115.8-51.3 47.7-41.4 105.3-71.4 168.9-86-21.3 34.7-39.4 81.6-53.1 137.3zM679.5 484c-1.3-57.5-6.7-111.9-15.4-161.4 52.5-15 101.3-37.3 144.8-65.8 53.4 62 87.5 140.7 93.7 227.2H679.5z m-558.1 0c6.2-86.4 40.2-165.1 93.5-227.1 43.5 28.5 92.4 50.6 145 65.6-8.7 49.6-14.1 104-15.4 161.5H121.4z m279.1 0c1.3-55.7 6.4-105.4 13.9-148.7 31.6 5.6 64.1 8.7 97.6 8.7 33.4 0 66-3 97.6-8.6 7.5 43.3 12.5 93 13.9 148.6h-223z m408.4 283.2c-43.5-28.5-92.3-50.8-144.8-65.8 8.7-49.6 14.1-104 15.4-161.4h223.1c-6.2 86.5-40.3 165.2-93.7 227.2z m-394.5-78.5c-7.5-43.3-12.5-93-13.9-148.7h222.9c-1.3 55.6-6.3 105.3-13.9 148.6C578 683 545.4 680 512 680c-33.4 0-66 3.1-97.6 8.7zM215 767.1c-53.3-62-87.4-140.7-93.5-227.1h223.1c1.3 57.5 6.7 111.9 15.4 161.5-52.6 15-101.5 37.1-145 65.6zM512 904c-20.6 0-60-55.3-86.2-160.5 27.9-4.8 56.7-7.5 86.2-7.5s58.3 2.7 86.2 7.5C572 848.7 532.6 904 512 904z m87.6-10.2c21.3-34.8 39.5-81.7 53.1-137.4 41.7 12.2 80.6 29.5 115.9 51.2-47.7 41.5-105.4 71.6-169 86.2z m-175.2 0c-63.6-14.6-121.2-44.6-168.9-86 35.2-21.8 74.1-39.1 115.8-51.3 13.7 55.6 31.8 102.5 53.1 137.3z" p-id="3409" fill="#019e48"></path></svg>
