<svg xmlns="http://www.w3.org/2000/svg" class="styles__StyledSVGIconPathComponent-sc-16fsqc8-0 gtbmXY svg-icon-path-icon fill" viewBox="0 0 32 32" width="20" height="20"><defs data-reactroot=""></defs><g><path d="M25.728 13.504c-0.002-0.194-0.158-0.35-0.352-0.352h-4.384c-0.192 0-0.352 0.16-0.352 0.352s-0.192 0.352-0.384 0.352h-8.512c-0.224 0-0.384-0.16-0.384-0.352s-0.16-0.352-0.352-0.352h-4.384c-0.192 0-0.352 0.16-0.352 0.352s-0.192 0.352-0.384 0.352h-3.136c-0.224 0-0.384 0.16-0.384 0.352v0.096c0 0.224 0.16 0.384 0.384 0.384h3.136c0.192 0 0.352 0.128 0.352 0.32s0.192 0.32 0.384 0.32h1.408c0.224 0 0.384 0.16 0.384 0.352v2.784c0 0.192 0.16 0.384 0.352 0.384 0.211-0.003 0.381-0.173 0.384-0.384v-2.784c0-0.192 0.16-0.352 0.352-0.352h1.472c0.224 0 0.384-0.16 0.384-0.32s0.16-0.32 0.352-0.32h8.544c0.224 0 0.384 0.128 0.384 0.32s0.16 0.32 0.352 0.32h1.472c0.224 0 0.384 0.16 0.384 0.352v2.784c0 0.192 0.16 0.384 0.352 0.384s0.384-0.192 0.384-0.384v-2.784c0-0.192 0.16-0.352 0.352-0.352h1.408c0.224 0 0.384-0.16 0.384-0.32s0.16-0.32 0.384-0.32h3.136c0.211-0.003 0.381-0.173 0.384-0.384v-0.096c0-0.192-0.192-0.352-0.384-0.352h-3.136c-0.224 0-0.384-0.16-0.384-0.352zM13.952 11.488h-0.992c-0.224 0-0.384 0.128-0.384 0.288s0.16 0.288 0.384 0.288h6.080c0.224 0 0.384-0.128 0.384-0.288s-0.192-0.288-0.384-0.288h-1.024c-0.211-0.003-0.381-0.173-0.384-0.384v-0.896c0-0.192 0.16-0.352 0.384-0.352h3.552c0.211-0.003 0.381-0.173 0.384-0.384v-7.104c0-0.192-0.192-0.352-0.384-0.352h-11.136c-0.224 0-0.384 0.16-0.384 0.352v7.104c0 0.192 0.16 0.352 0.384 0.352h3.52c0.192 0 0.352 0.192 0.352 0.384v0.896c0 0.192-0.16 0.384-0.352 0.384zM11.264 8.256v-4.672c-0-0.004-0-0.009-0-0.014 0-0.204 0.166-0.37 0.37-0.37 0.005 0 0.010 0 0.015 0l-0.001-0h8.704c0.211 0.003 0.381 0.173 0.384 0.384v4.672c0 0.004 0 0.009 0 0.014 0 0.204-0.166 0.37-0.37 0.37-0.005 0-0.010-0-0.015-0l0.001 0h-8.704c-0.004 0-0.009 0-0.014 0-0.204 0-0.37-0.166-0.37-0.37 0-0.005 0-0.010 0-0.015l-0 0.001zM17.568 27.776h3.52c0.211 0.003 0.381 0.173 0.384 0.384v0.896c0 0.192-0.16 0.352-0.384 0.352h-0.992c-0.192 0-0.352 0.128-0.352 0.288s0.16 0.288 0.352 0.288h6.112c0.192 0 0.352-0.128 0.352-0.288s-0.16-0.288-0.352-0.288h-1.056c-0.194-0.002-0.35-0.158-0.352-0.352v-0.896c0-0.192 0.16-0.384 0.352-0.384h3.584c0.192 0 0.352-0.16 0.352-0.352v-7.104c0-0.224-0.16-0.384-0.352-0.384h-11.168c-0.192 0-0.352 0.16-0.352 0.384v7.104c0 0.192 0.16 0.352 0.352 0.352zM18.784 21.152h8.736c0.192 0 0.352 0.16 0.352 0.384v4.672c0 0.192-0.16 0.352-0.352 0.352h-8.736c-0.194-0.002-0.35-0.158-0.352-0.352v-4.672c0-0.224 0.16-0.384 0.352-0.384zM3.264 27.776h3.584c0.192 0 0.352 0.192 0.352 0.384v0.896c0 0.192-0.16 0.352-0.352 0.352h-1.056c-0.192 0-0.384 0.128-0.384 0.288s0.192 0.288 0.384 0.288h6.112c0.192 0 0.352-0.128 0.352-0.288s-0.16-0.288-0.352-0.288h-0.992c-0.224 0-0.384-0.16-0.384-0.352v-0.896c0.003-0.211 0.173-0.381 0.384-0.384h3.52c0.192 0 0.352-0.16 0.352-0.352v-7.104c0-0.224-0.16-0.384-0.352-0.384h-11.168c-0.211 0.003-0.381 0.173-0.384 0.384v7.104c0 0.192 0.192 0.352 0.384 0.352zM4.48 21.152h8.736c0.192 0 0.352 0.16 0.352 0.384v4.672c0 0.192-0.16 0.352-0.352 0.352h-8.736c-0.224 0-0.384-0.16-0.384-0.352v-4.672c-0-0.004-0-0.009-0-0.014 0-0.204 0.166-0.37 0.37-0.37 0.005 0 0.010 0 0.015 0l-0.001-0z" fill="#3380F3"></path></g></svg>
