<svg t="1672988005047" class="icon" viewBox="0 0 1024 1024" version="1.1" xmlns="http://www.w3.org/2000/svg" p-id="4098" width="40" height="40"><path d="M939.880137 299.43679 83.552951 299.43679c-16.57449 0-30.011524-13.101389-30.011524-29.67588s13.437034-29.67588 30.011524-29.67588L939.880137 240.08503c16.57449 0 30.011524 13.101389 30.011524 29.67588S956.454628 299.43679 939.880137 299.43679z" fill="#fff" p-id="4099"></path><path d="M785.821389 546.053584 83.552951 546.053584c-16.57449 0-30.011524-13.613042-30.011524-30.187533s13.437034-30.187533 30.011524-30.187533L785.821389 485.678518c16.57449 0 30.011524 13.613042 30.011524 30.187533S802.39588 546.053584 785.821389 546.053584z" fill="#fff" p-id="4100"></path><path d="M939.880137 791.647071 83.552951 791.647071c-16.57449 0-30.011524-13.101389-30.011524-29.67588s13.437034-29.67588 30.011524-29.67588L939.880137 732.295312c16.57449 0 30.011524 13.101389 30.011524 29.67588S956.454628 791.647071 939.880137 791.647071z" fill="#fff" p-id="4101"></path></svg>
