<svg t="1664885586476" class="icon" viewBox="0 0 1024 1024" version="1.1" xmlns="http://www.w3.org/2000/svg" p-id="16476" width="20" height="20"><path d="M66.445318 135.069255l0.537236 0 885.306194 0c20.72502 0 37.234019 16.510022 37.234019 37.234019l0 1.043772 0 674.54605c0 20.455891-16.510022 36.965913-37.234019 36.965913l-0.509606 0L66.445318 884.85901c-20.697391 0-37.207413-16.510022-37.207413-36.965913l0-0.805342L29.237905 172.303274C29.236881 151.578254 45.746904 135.069255 66.445318 135.069255L66.445318 135.069255zM915.862117 240.97326 915.862117 240.97326 524.963243 632.134101c-8.643867 8.378831-22.281469 8.378831-31.194466 0L102.900601 240.97326l0 569.94983 812.960493 0L915.861094 240.97326 915.862117 240.97326zM885.442294 209.001081 885.442294 209.001081 133.289726 209.001081l376.210337 375.674125L885.442294 209.001081 885.442294 209.001081z" p-id="16477" fill="#019e48"></path></svg>
