<svg t="1672927937113" class="icon" viewBox="0 0 1024 1024" version="1.1" xmlns="http://www.w3.org/2000/svg" p-id="9626" width="32" height="32"><path d="M426.666714 1024a184.888786 184.888786 0 0 1-21.048877-4.551109 51.199972 51.199972 0 0 1-21.048877-38.115534v-370.915349L9.102502 68.267198A46.079974 46.079974 0 0 1 4.551393 21.618335 44.942197 44.942197 0 0 1 43.235816 0.000569h937.528368a44.942197 44.942197 0 0 1 38.115534 21.617766 39.253312 39.253312 0 0 1-3.98222 42.666643l-375.466458 546.13303v284.444286a40.959977 40.959977 0 0 1-25.599985 38.684423l-170.666572 85.333286c-3.98222 4.551109-8.533329 4.551109-17.066657 4.551108z" fill="#ffffff" p-id="9627"></path></svg>
