<svg t="1672998024613" class="icon" viewBox="0 0 1024 1024" version="1.1" xmlns="http://www.w3.org/2000/svg" p-id="12723" width="200" height="200"><path d="M512 170.666667l-234.666667 192H128v298.666666h149.333333l234.666667 192V170.666667z" fill="#ffffff" p-id="12724"></path><path d="M530.282667 132.117333A42.666667 42.666667 0 0 1 554.666667 170.666667v682.666666a42.666667 42.666667 0 0 1-69.696 33.024L262.122667 704H128a42.666667 42.666667 0 0 1-42.666667-42.666667V362.666667a42.666667 42.666667 0 0 1 42.666667-42.666667h134.101333l222.869334-182.357333a42.666667 42.666667 0 0 1 45.290666-5.546667zM469.333333 260.693333l-164.970666 134.997334A42.666667 42.666667 0 0 1 277.333333 405.333333H170.666667v213.333334h106.666666a42.666667 42.666667 0 0 1 27.029334 9.642666L469.333333 763.306667V260.693333zM713.92 376.234667l211.178667 211.2-60.330667 60.330666-211.2-211.2 60.352-60.330666z" fill="#ffffff" p-id="12725"></path><path d="M925.098667 436.586667l-211.2 211.2-60.330667-60.373334 211.2-211.178666 60.330667 60.352z" fill="#ffffff" p-id="12726"></path></svg>
