<svg t="1673012518802" class="icon" viewBox="0 0 1024 1024" version="1.1" xmlns="http://www.w3.org/2000/svg" p-id="10358" width="200" height="200"><path d="M320 64h640v128H320z" fill="#ffffff" p-id="10359"></path><path d="M320 160h128V768H320z" fill="#ffffff" p-id="10360"></path><path d="M832 128h128v608h-128zM256 704a64 64 0 1 1-64 64 64 64 0 0 1 64-64m0-128a192 192 0 1 0 192 192 192 192 0 0 0-192-192z" fill="#ffffff" p-id="10361"></path><path d="M768 704a64 64 0 1 1-64 64 64 64 0 0 1 64-64m0-128a192 192 0 1 0 192 192 192 192 0 0 0-192-192z" fill="#ffffff" p-id="10362"></path></svg>
