<svg xmlns="http://www.w3.org/2000/svg" class="styles__StyledSVGIconPathComponent-sc-16fsqc8-0 iuXYLc svg-icon-path-icon fill" fill="#3380F3" viewBox="0 0 32 32" width="20" height="20"><defs data-reactroot=""></defs><g><path d="M20 6v-2h-2c0-1.6-1.4-3-3-3s-3 1.4-3 3h-2v2h-6v24h22v-24h-6zM12 6h2v-2c0-0.6 0.4-1 1-1s1 0.4 1 1v2h2v2h-6v-2zM24 28h-18v-20h4v2h10v-2h4v20z"></path><path d="M12 12h10v2h-10v-2zM12 18h10v2h-10v-2zM12 24h10v2h-10v-2zM8 12h2v2h-2v-2zM8 18h2v2h-2v-2zM8 24h2v2h-2v-2z"></path></g></svg>
